<svg width="17" height="17" viewBox="0 0 17 17" fill="none" xmlns="http://www.w3.org/2000/svg">
<path d="M9.37012 9.36916C9.523 9.21656 9.70519 9.0965 9.90571 9.01622L16.249 6.47251C16.3247 6.44212 16.3894 6.38929 16.4342 6.32111C16.479 6.25293 16.502 6.17266 16.4999 6.09108C16.4978 6.0095 16.4708 5.93051 16.4225 5.86472C16.3742 5.79892 16.307 5.74947 16.2298 5.723L1.03154 0.523595C0.96066 0.497995 0.883957 0.49311 0.810404 0.50951C0.736852 0.525911 0.669493 0.56292 0.616207 0.616207C0.56292 0.669493 0.525911 0.736854 0.50951 0.810406C0.493109 0.883958 0.497995 0.96066 0.523595 1.03154L5.723 16.2298C5.74947 16.307 5.79892 16.3742 5.86472 16.4225C5.93051 16.4708 6.0095 16.4978 6.09108 16.4999C6.17266 16.502 6.25293 16.479 6.32111 16.4342C6.38929 16.3894 6.44212 16.3247 6.47251 16.249L9.01622 9.90412C9.09686 9.70373 9.21725 9.52176 9.37012 9.36916ZM9.37012 9.36916L0.618784 0.619584" stroke="white" stroke-linecap="round" stroke-linejoin="round"/>
</svg>
