<svg width="32" height="32" viewBox="0 0 32 32" fill="none" xmlns="http://www.w3.org/2000/svg">
<rect width="32" height="32" rx="16" fill="white"/>
<path d="M13.7267 16.9815L18.28 19.5685M18.2733 12.4315L13.7267 15.0185M22 11.45C22 12.527 21.1046 13.4 20 13.4C18.8954 13.4 18 12.527 18 11.45C18 10.373 18.8954 9.5 20 9.5C21.1046 9.5 22 10.373 22 11.45ZM14 16C14 17.077 13.1046 17.95 12 17.95C10.8954 17.95 10 17.077 10 16C10 14.923 10.8954 14.05 12 14.05C13.1046 14.05 14 14.923 14 16ZM22 20.55C22 21.627 21.1046 22.5 20 22.5C18.8954 22.5 18 21.627 18 20.55C18 19.473 18.8954 18.6 20 18.6C21.1046 18.6 22 19.473 22 20.55Z" stroke="#451425" stroke-linecap="round" stroke-linejoin="round"/>
</svg>
